<svg width="1200" height="630" viewBox="0 0 1200 630" fill="none" xmlns="http://www.w3.org/2000/svg">
  <rect width="1200" height="630" fill="#0B1220"/>
  <rect x="36" y="36" width="1128" height="558" rx="28" fill="url(#panel)"/>
  <rect x="72" y="74" width="250" height="34" rx="17" fill="#182235"/>
  <text x="98" y="96" fill="#9FB3D1" font-family="Microsoft YaHei, Segoe UI, Arial, sans-serif" font-size="18">Codex 技能</text>
  <text x="72" y="188" fill="#F6F8FC" font-family="Microsoft YaHei, Segoe UI, Arial, sans-serif" font-size="68" font-weight="700">GitHub Launch Kit</text>
  <text x="72" y="244" fill="#C3D1E8" font-family="Microsoft YaHei, Segoe UI, Arial, sans-serif" font-size="28">把普通仓库打磨成更适合公开发布的项目</text>
  <text x="72" y="286" fill="#C3D1E8" font-family="Microsoft YaHei, Segoe UI, Arial, sans-serif" font-size="28">聚焦定位、证据展示与上手体验</text>
  <rect x="72" y="344" width="330" height="70" rx="18" fill="#111B2D"/>
  <text x="98" y="388" fill="#E9F0FA" font-family="Consolas, Menlo, monospace" font-size="26">$github-launch-kit</text>
  <rect x="72" y="454" width="220" height="40" rx="20" fill="#193056"/>
  <text x="110" y="480" fill="#8CC2FF" font-family="Microsoft YaHei, Segoe UI, Arial, sans-serif" font-size="20">README 清晰度</text>
  <rect x="308" y="454" width="168" height="40" rx="20" fill="#193056"/>
  <text x="350" y="480" fill="#8CC2FF" font-family="Microsoft YaHei, Segoe UI, Arial, sans-serif" font-size="20">快速开始</text>
  <rect x="492" y="454" width="168" height="40" rx="20" fill="#193056"/>
  <text x="534" y="480" fill="#8CC2FF" font-family="Microsoft YaHei, Segoe UI, Arial, sans-serif" font-size="20">可信证据</text>
  <rect x="754" y="110" width="336" height="370" rx="24" fill="#10192A"/>
  <rect x="786" y="146" width="188" height="20" rx="10" fill="#2A3C59"/>
  <rect x="786" y="194" width="272" height="14" rx="7" fill="#6D83A5"/>
  <rect x="786" y="226" width="248" height="14" rx="7" fill="#6D83A5"/>
  <rect x="786" y="258" width="214" height="14" rx="7" fill="#6D83A5"/>
  <rect x="786" y="318" width="270" height="84" rx="18" fill="#15253D"/>
  <rect x="814" y="342" width="118" height="12" rx="6" fill="#8CC2FF"/>
  <rect x="814" y="368" width="204" height="10" rx="5" fill="#6D83A5"/>
  <rect x="814" y="390" width="178" height="10" rx="5" fill="#6D83A5"/>
  <rect x="786" y="432" width="144" height="18" rx="9" fill="#274A7C"/>
  <defs>
    <linearGradient id="panel" x1="78" y1="60" x2="1098" y2="572" gradientUnits="userSpaceOnUse">
      <stop stop-color="#121B2B"/>
      <stop offset="1" stop-color="#0D1523"/>
    </linearGradient>
  </defs>
</svg>
